# xmcd
#
# Track frame offsets: 
#        150
#        11610
#        24905
#        36900
#        52370
#        64430
#        78302
#        88915
#        102522
#        114732
#        125382
#        134595
#
# Disc length: 1929 seconds
#
# Revision: 0
# Processed by: cddbd v1.4PL0 Copyright (c) Steve Scherf et al.
# Submitted via: ExactAudioCopy v0.90b3
#
DISCID=ad07870c
DTITLE=The Kendalls - So Many Hits It's Sinful
DYEAR=1900
DGENRE=Country
TTITLE0=Heaven's Just A Sin Away
TTITLE1=Pittsburgh Stealers
TTITLE2=Sweet Desire
TTITLE3=Just Like Real People
TTITLE4=It Don't Feel Like Sinnin' To Me
TTITLE5=Cryin' Time
TTITLE6=You'd Make An Angel Wanna Cheat
TTITLE7=Thank God For The Radio
TTITLE8=I'm Already Blue
TTITLE9=I'd Dance Every Dance With You
TTITLE10=Blue Blue Day
TTITLE11=I Had A Lovely Time
EXTD=
EXTT0=
EXTT1=
EXTT2=
EXTT3=
EXTT4=
EXTT5=
EXTT6=
EXTT7=
EXTT8=
EXTT9=
EXTT10=
EXTT11=
PLAYORDER=
